<svg width="80" height="80" viewBox="0 0 16 16" xmlns="http://www.w3.org/2000/svg" fill="currentColor"><path fill-rule="evenodd" clip-rule="evenodd" d="M13.62 3.84a2.87 2.87 0 0 0-.45-.86l1.35-1.36L13.9 1l-1.36 1.35a2.88 2.88 0 0 0-.86-.45 3.07 3.07 0 0 0-2.14.08 3.03 3.03 0 0 0-1 .66L7 4.2l4.33 4.33 1.55-1.54c.29-.3.5-.62.66-1a3.07 3.07 0 0 0 .08-2.14zm-.9 1.8a2.15 2.15 0 0 1-.46.71l-.93.93-3.1-3.09.94-.93a2.15 2.15 0 0 1 .7-.47 2.13 2.13 0 0 1 1.69 0c.26.12.5.28.69.48.2.2.36.43.47.69a2.13 2.13 0 0 1 0 1.69zm-4.82 5L9.4 9.1l-.62-.63-1.49 1.56-1.86-1.86 1.5-1.56L6.28 6 4.81 7.54l-.62-.61-1.55 1.54a3 3 0 0 0-.66 1 3.02 3.02 0 0 0-.24 1.17 3.02 3.02 0 0 0 .6 1.83l-1.34 1.36.61.62 1.36-1.35a3.04 3.04 0 0 0 4-.3l1.55-1.54-.62-.62zm-2.26 2.02a2.16 2.16 0 0 1-.83.17c-.3 0-.59-.06-.86-.17a2.28 2.28 0 0 1-.7-.47 2.28 2.28 0 0 1-.46-.7 2.17 2.17 0 0 1-.17-.85 2.16 2.16 0 0 1 .64-1.54l.93-.93 3.1 3.09-.94.93a2.22 2.22 0 0 1-.7.48z"/></svg>