<svg fill="currentColor" height="800" width="800" xmlns="http://www.w3.org/2000/svg" viewBox="0 0 463 463" xml:space="preserve"><path d="M368 159c4 0 7-3 7-7v-33a8 8 0 0 0-1-2v-2h-1v-1h-1l-95-80-23-31-6-3h-32c-3 0-5 1-6 3l-24 31-95 80h-1v1h-1v1l-1 1v35a7 7 0 1 0 15 0v-25h81v69l-93 78h-1v1h-1v1l-1 1v35a7 7 0 1 0 15 0v-25h78l-59 161h-10a7 7 0 1 0 0 15h40a7 7 0 1 0 0-15h-9l89-108 88 108a7 7 0 1 0 0 15h40a7 7 0 1 0 0-15h-19l-59-161h78v25a7 7 0 1 0 15 0v-33a8 8 0 0 0-1-2v-2h-1v-1h-1l-93-78v-69h81v25c0 4 3 7 8 7zM221 80l-22 21V58l22 22zm-11-33h43l-21 22-22-22zm0 65 22-22 21 22h-43zm43 15-21 22-22-22h43zm-32 33-22 21v-43l22 22zm-11 32 22-22 21 22h-43zm43 15-21 22-22-22h43zm-32 33-22 21v-43l22 22zm11 10 21 22h-43l22-22zm24 37-24 30-25-30h49zm-14-47 22-22v43l-22-21zm0-80 22-22v43l-22-21zm0-80 22-22v43l-22-21zm-23-65h25l13 17h-50l12-17zm-35 41v56h-68l68-56zm0 160v56h-68l68-56zm-34 201 44-123 28 34-72 89zm91-89 28-34 44 123-72-89zm38-56v-56l68 56h-68zm0-160V56l68 56h-68z"/></svg>