<svg width="80" height="80" viewBox="0 0 64 64" xmlns="http://www.w3.org/2000/svg" stroke-width="3" stroke="currentColor" fill="none"><rect x="8.5" y="9.3" width="10.7" height="45.5" rx=".2" stroke-linecap="round"/><path stroke-linecap="square" d="M8.5 14.3h3.8M8.5 19.4h3.8M8.5 24.5h3.8M8.5 29.6h3.8M8.5 34.8h3.8M8.5 39.7h3.8M8.5 44.7h3.8M8.5 49.6h3.8"/><path d="M24.2 9.8v44.8a.2.2 0 0 0 .1.1h31a.2.2 0 0 0 .2-.2l-31-44.8a.2.2 0 0 0-.3.1Z" stroke-linecap="round"/><path d="M29.4 26.5v22.7h15.2a.2.2 0 0 0 .2-.2L29.5 26.4h-.1Z" stroke-linecap="round"/></svg>