<svg fill="currentColor" height="800" width="800" data-name="Layer 1" xmlns="http://www.w3.org/2000/svg" viewBox="0 0 16 16"><path class="cls-1" d="m12.29 11.71-5.8-5.79a2.5 2.5 0 0 0 .17-.75 2.15 2.15 0 0 0-.09-.82 2.12 2.12 0 0 0-.55-.9 2.33 2.33 0 0 0-1.76-.68h-.04a2.1 2.1 0 0 0-.72.15l1.1 1.1.32.32.24.25a1.86 1.86 0 0 1-.22.85 1.04 1.04 0 0 1-.11.15 1.65 1.65 0 0 1-1 .33L2.6 4.7l-.45-.45a2.07 2.07 0 0 0-.13.55L2 4.9a2.34 2.34 0 0 0 .38 1.52 2.5 2.5 0 0 0 .3.36 2.2 2.2 0 0 0 1.57.65 2.45 2.45 0 0 0 .9-.17l4.8 4.8 1.2 1.2h.67l.66-.67v-.67Zm-6.54-2.8 1.37 1.36-3 3h-.91l-.45-.46v-.91Zm8.25-3-1.8 1.8-1.3-1.21L9.5 7.88 8.14 6.51l1.38-1.38L7.9 3.51l.68-.77 2.25.45Z"/></svg>