<svg fill="currentColor" height="80" width="80" xmlns="http://www.w3.org/2000/svg" viewBox="0 0 512 512" xml:space="preserve"><path d="m454 250 58-43-50-168-257 8-24 39-88-22L0 256l42 36-22 35a48 48 0 0 0 14 67 48 48 0 0 0 34 8 48 48 0 0 0 54 34 48 48 0 0 0 47 36c16 0 31-8 41-22l6-11 39 26a48 48 0 0 0 68-14c5-8 7-16 7-25a49 49 0 0 0 38-22c5-8 8-16 8-25a49 49 0 0 0 38-22c5-8 8-16 8-25a49 49 0 0 0 32-82zM224 80l214-7 36 121-48 36-184-120-52 79a16 16 0 0 1-26-17l60-92zM74 362a16 16 0 0 1-26-17l33-51a16 16 0 0 1 26 17l-33 51zm54 35a16 16 0 0 1-26-17l33-51a16 16 0 0 1 26 17l-33 51zm87-16-33 51a16 16 0 0 1-26-17l33-51a16 16 0 0 1 21-5c8 5 10 14 5 22zm217-89a16 16 0 0 1-21 5l-11-7-51-33-18 27 11 7 40 26c3 3 6 6 7 10s0 8-2 12-6 6-10 7-9 0-12-2l-51-33-18 27 40 26a16 16 0 0 1-17 27l-43-29-18 28 32 21a16 16 0 0 1-17 27l-39-26 9-13a49 49 0 0 0-48-75 48 48 0 0 0-54-35c-4-11-11-21-21-27a49 49 0 0 0-58 4l-21-18 70-145 51 12-26 40a49 49 0 0 0 82 52l34-51 176 114a16 16 0 0 1 4 22z"/></svg>